<?xml version="1.0" encoding="UTF-8"?>
<svg xmlns="http://www.w3.org/2000/svg" xmlns:xlink="http://www.w3.org/1999/xlink" width="20px" height="px" viewBox="0 0 20 16" version="1.1">
<g id="surface1">
<path style=" stroke:none;fill-rule:nonzero;fill:rgb(0%,0%,0%);fill-opacity:1;" d="M 16.800781 7.082031 C 16.929688 6.746094 17 6.382812 17 6 C 17 4.34375 15.65625 3 14 3 C 13.382812 3 12.808594 3.1875 12.335938 3.507812 C 11.46875 2.007812 9.851562 1 8 1 C 5.238281 1 3 3.238281 3 6 C 3 6.085938 3.003906 6.167969 3.007812 6.253906 C 1.257812 6.867188 0 8.539062 0 10.5 C 0 12.984375 2.015625 15 4.5 15 L 16 15 C 18.210938 15 20 13.210938 20 11 C 20 9.066406 18.625 7.449219 16.800781 7.082031 Z M 16.800781 7.082031 "/>
</g>
</svg>
