<?xml version="1.0" encoding="UTF-8"?>
<svg xmlns="http://www.w3.org/2000/svg" xmlns:xlink="http://www.w3.org/1999/xlink" width="20px" height="px" viewBox="0 0 20 16" version="1.1">
<g id="surface1">
<path style=" stroke:none;fill-rule:nonzero;fill:rgb(0%,0%,0%);fill-opacity:1;" d="M 14.722656 3 C 12.65625 3 11.039062 4.289062 10 5.457031 C 8.960938 4.289062 7.34375 3 5.277344 3 C 2.367188 3 0 5.242188 0 8 C 0 10.757812 2.367188 13 5.277344 13 C 7.34375 13 8.960938 11.710938 10 10.542969 C 11.039062 11.710938 12.65625 13 14.722656 13 C 17.632812 13 20 10.757812 20 8 C 20 5.242188 17.632812 3 14.722656 3 Z M 5.277344 10 C 4.023438 10 3 9.101562 3 8 C 3 6.898438 4.023438 6 5.277344 6 C 6.472656 6 7.570312 7.128906 8.214844 8 C 7.578125 8.863281 6.46875 10 5.277344 10 Z M 14.722656 10 C 13.527344 10 12.429688 8.871094 11.785156 8 C 12.421875 7.136719 13.53125 6 14.722656 6 C 15.976562 6 17 6.898438 17 8 C 17 9.101562 15.976562 10 14.722656 10 Z M 14.722656 10 "/>
</g>
</svg>
