<?xml version="1.0" encoding="UTF-8"?>
<svg xmlns="http://www.w3.org/2000/svg" xmlns:xlink="http://www.w3.org/1999/xlink" width="20px" height="px" viewBox="0 0 20 20" version="1.1">
<g id="surface1">
<path style=" stroke:none;fill-rule:nonzero;fill:rgb(0%,0%,0%);fill-opacity:1;" d="M 10 6.25 C 7.933594 6.25 6.25 7.933594 6.25 10 C 6.25 12.066406 7.933594 13.75 10 13.75 C 12.066406 13.75 13.75 12.066406 13.75 10 C 13.75 7.933594 12.066406 6.25 10 6.25 Z M 19.625 9.394531 L 15.925781 7.546875 L 17.234375 3.625 C 17.410156 3.09375 16.90625 2.589844 16.378906 2.769531 L 12.457031 4.078125 L 10.605469 0.375 C 10.355469 -0.125 9.644531 -0.125 9.394531 0.375 L 7.546875 4.074219 L 3.621094 2.765625 C 3.089844 2.589844 2.585938 3.09375 2.765625 3.621094 L 4.074219 7.542969 L 0.375 9.394531 C -0.125 9.644531 -0.125 10.355469 0.375 10.605469 L 4.074219 12.453125 L 2.765625 16.378906 C 2.589844 16.910156 3.09375 17.414062 3.621094 17.234375 L 7.542969 15.925781 L 9.390625 19.625 C 9.640625 20.125 10.351562 20.125 10.601562 19.625 L 12.449219 15.925781 L 16.371094 17.234375 C 16.902344 17.410156 17.40625 16.90625 17.226562 16.378906 L 15.917969 12.457031 L 19.617188 10.609375 C 20.125 10.355469 20.125 9.644531 19.625 9.394531 Z M 13.535156 13.535156 C 11.585938 15.484375 8.414062 15.484375 6.464844 13.535156 C 4.515625 11.585938 4.515625 8.414062 6.464844 6.464844 C 8.414062 4.515625 11.585938 4.515625 13.535156 6.464844 C 15.484375 8.414062 15.484375 11.585938 13.535156 13.535156 Z M 13.535156 13.535156 "/>
</g>
</svg>
